<?xml version="1.0" encoding="UTF-8" standalone="no"?>
<!-- Created with SVGEdit -->

<svg
   version="1.1"
   viewBox="0 0 64.9984 52.4986"
   width="64.9984mm"
   height="52.4986mm"
   id="svg9"
   sodipodi:docname="brainCut_red.svg"
   inkscape:version="1.2.1 (9c6d41e410, 2022-07-14)"
   xmlns:inkscape="http://www.inkscape.org/namespaces/inkscape"
   xmlns:sodipodi="http://sodipodi.sourceforge.net/DTD/sodipodi-0.dtd"
   xmlns="http://www.w3.org/2000/svg"
   xmlns:svg="http://www.w3.org/2000/svg">
  <defs
     id="defs13" />
  <sodipodi:namedview
     id="namedview11"
     pagecolor="#ffffff"
     bordercolor="#000000"
     borderopacity="0.25"
     inkscape:showpageshadow="2"
     inkscape:pageopacity="0.0"
     inkscape:pagecheckerboard="0"
     inkscape:deskcolor="#d1d1d1"
     inkscape:document-units="mm"
     showgrid="false"
     inkscape:zoom="4.3443222"
     inkscape:cx="116.81914"
     inkscape:cy="106.80607"
     inkscape:window-width="1920"
     inkscape:window-height="1137"
     inkscape:window-x="-8"
     inkscape:window-y="-8"
     inkscape:window-maximized="1"
     inkscape:current-layer="svg9" />
  <path
     style="fill:#ff0000;stroke-width:0.1px;fill-opacity:1"
     d="m 39.637,1.196 0.9201,0.4393 0.2901,0.3481 0.6133,0.1492 1.3014,0.0746 0.4641,0.20725 0.522,0.7957 0.39,0.27355 1.152,0.1906 0.9615,0.2886 0.776,0.8741 0.799,0.4898 0.9265,0.2863 0.7915,0.3617 1.5295,1.3262 0.354,0.57265 0.339,0.4898 0.5805,0.13565 0.6025,0.23355 2.1855,1.89135 0.3615,0.5952 0.113,0.5426 0.4295,0.2939 0.1205,0.5349 1.3115,1.04 1.507,1.5295 0.5275,1.3036 0.055,1.2023 0.618,0.6933 1.032,1.6578 0.7915,2.7654 0.497,0.6705 0.181,0.7085 0.045,1.2205 0.1735,0.505 0.49,0.4595 0.2935,0.3165 0.279,1.507 0.0525,0.927 -0.173,0.648 0.045,0.6255 0.3165,0.708 0.042,0.4565 -0.17,0.4005 -0.3155,0.74 -0.073,1.3595 0.2185,0.995 -0.0365,0.6915 -0.485,0.7405 -0.7405,0.291 -2.1235,-0.012 -3.4835,0.184 -0.1465,2.085 -0.323,2.2025 -0.4995,1.2775 -0.4845,2.599 -2.658,2.6725 -2.731,1.3365 -2.3765,0.4235 -4.8827,-0.31 -1.9729,-0.685 -0.7809,-0.767 0.0411,1.603 -0.3773,2.1565 -3.9793,0.352 -0.2294,-1.2495 -0.5418,-0.996 -0.9777,-0.953 -1.1645,-1.264 -1.3015,-2.5595 -1.4012,-0.866 -1.1085,-0.909 -0.6601,-0.9405 -1.3949,-4.1475 -0.4795,-0.2175 -0.6103,-0.1 -0.8594,0.112 -1.9516,0.483 -1.4257,0.0495 -1.2101,-0.207 -2.0059,-0.6465 -0.3896,-0.365 -0.2652,-0.87 -0.2735,-0.3815 -0.6466,-0.348 -1.0858,-0.456 -0.9283,-1.0445 -0.5139,-1.525 -0.8289,-0.199 -3.1488,-0.384 L 6.8449,30.9275 5.0159,30.03 4.0569,28.9545 2.0087,27.1805 1.42645,26.324 1.06335,25.221 1.0017,24.2075 0.96745,23.68 0.66605,23.3785 0.4948,22.618 0.62495,18.6587 0.57015,17.3778 0.6455,16.5968 1.20035,15.1035 1.7484,14.4733 l 0.274,-0.7741 0.2603,-0.8905 0.89735,-0.8358 0.4179,-0.137 1.0412,-1.6303 1.4572,-1.4637 0.5727,-0.11745 0.6314,-0.23495 0.279,-0.3671 -0.0294,-0.22025 1.4831,-1.26285 2.18785,-0.93975 1.2188,-0.8957 2.1585,-1.1307 1.7768,-0.23495 0.558,-0.1762 0.7342,-0.66075 1.0131,-0.24965 1.7034,-0.7195 2.1585,0.279 0.602,-0.2937 2.3935,-0.46985 1.8355,-0.1175 1.4978,0.41115 1.2187,-0.0734 2.0117,-0.513949 2.3056,-0.286652 2.2795,0.476851 1.0578,0.7196 0.9567,-0.45855 z m 4.2585,31.427 -0.3,0.266 -0.3285,0.051 -0.3339,-0.1815 -0.3001,-0.4925 -0.1415,-0.1415 -0.1076,0.068 -0.0792,0.3395 0.1019,0.753 1.1434,2.5025 0.023,0.634 -0.2435,0.787 -0.323,0.283 -0.3282,-0.068 -0.4868,-0.6395 -1.806,-3.414 -0.4019,-0.2435 -0.1076,0.051 0.051,0.351 0.3113,0.736 0.6737,1.404 0.2321,0.6455 -0.0453,0.181 -0.2887,0.249 -0.2377,0.1135 -0.1755,0.017 -0.351,-0.1305 -0.4869,-0.4075 -0.4189,-0.487 -0.4092,-0.4315 -0.2972,-0.1885 -0.1726,0.0095 -0.1406,0.169 -0.0128,0.336 0.1151,0.3575 0.6135,0.3325 0.882,0.5335 0.2684,0.2685 0.0799,0.1695 -0.0671,0.0895 -0.5688,0.1055 -0.2301,0.0925 -0.115,0.1725 0.0607,0.16 0.3599,0.3505 0.0679,0.1585 -0.1206,0.1055 -0.2034,0.0525 -0.8289,-0.1655 -0.3308,-0.164 0.8916,2.6895 0.0516,-0.076 0.8123,-0.564 0.2486,-0.0825 0.0746,0.0995 -0.3315,0.4475 -0.2735,0.547 0.0497,0.3975 0.3647,0.0085 0.1906,-0.282 0.2984,-0.464 0.4145,-0.083 0.1657,0.075 0.0166,1.475 0.1243,0.1325 0.3067,-0.0825 0.1741,-0.34 0.0083,-1.011 0.0746,-0.249 0.4558,-0.0245 0.5305,0.356 0.7129,0.9615 1.061,1.84 0.2985,0.1825 0.24,-0.1325 0.166,-0.572 -0.0745,-0.456 -1.1275,-1.351 0.141,-0.9115 0.199,-0.3315 0.257,-0.025 0.58,0.348 3.125,3.017 0.439,0.0995 0.174,-0.24 -0.066,-0.622 -0.5225,-0.7625 -1.9145,-1.5165 -0.058,-0.2985 0.2405,-0.257 0.3975,-0.033 1.923,0.671 0.854,0.0665 0.887,-0.3815 0.149,-0.298 -0.149,-0.249 -0.597,-0.2155 -0.945,0.1825 -0.4725,-0.083 -0.0745,-0.199 0.1245,-0.315 1.094,-0.6795 0.406,-0.381 0.0915,-0.514 -0.1575,-0.1245 -0.4645,0.1325 -0.7045,0.63 -0.6545,0.6215 -0.6465,-0.1985 -0.075,-0.481 0.564,-0.8785 1.102,-0.9615 0.017,-0.5635 -0.1575,-0.29 -0.2405,0.008 -0.514,0.5055 -0.7955,1.3015 -1.363,0.9675 -0.6095,0.7535 -0.5755,0.329 -0.212,-0.0825 -0.137,-0.363 0.2395,-1.678 0.144,-0.185 0.445,0.3835 0.1785,-0.0615 -0.0345,-0.843 0.144,-0.404 0.404,-0.322 0.733,-0.911 0.349,-0.9435 -0.187,-0.903 -0.3485,-0.2365 -0.2305,0.0685 -0.1435,1.0025 -0.417,1.4135 -0.5295,0.604 -0.436,0.1555 -0.255,-0.2115 -0.2225,-0.805 -0.0905,-1.8965 0.147,-2.0945 -0.4245,0.351 z"
     id="path2" />
</svg>
