<?xml version="1.0" encoding="UTF-8" standalone="no"?>
<!-- Created with Inkscape (http://www.inkscape.org/) -->

<svg
   width="140mm"
   height="140.00218mm"
   viewBox="0 0 140 140.00218"
   version="1.1"
   id="svg5"
   xml:space="preserve"
   inkscape:version="1.2.1 (9c6d41e410, 2022-07-14)"
   sodipodi:docname="bunny_0p4.svg"
   xmlns:inkscape="http://www.inkscape.org/namespaces/inkscape"
   xmlns:sodipodi="http://sodipodi.sourceforge.net/DTD/sodipodi-0.dtd"
   xmlns="http://www.w3.org/2000/svg"
   xmlns:svg="http://www.w3.org/2000/svg"><sodipodi:namedview
     id="namedview7"
     pagecolor="#ffffff"
     bordercolor="#000000"
     borderopacity="0.25"
     inkscape:showpageshadow="2"
     inkscape:pageopacity="0.0"
     inkscape:pagecheckerboard="0"
     inkscape:deskcolor="#d1d1d1"
     inkscape:document-units="mm"
     showgrid="false"
     inkscape:zoom="0.85841612"
     inkscape:cx="93.777363"
     inkscape:cy="239.97686"
     inkscape:window-width="1920"
     inkscape:window-height="1017"
     inkscape:window-x="1912"
     inkscape:window-y="-3"
     inkscape:window-maximized="1"
     inkscape:current-layer="svg5" /><defs
     id="defs2" /><path
     style="fill:none;stroke:#000000;stroke-width:0.563397;stop-color:#000000"
     d="m 43.004761,137.64924 -5.631934,0.39903 -3.668163,-0.43531 -2.593662,-0.68922 c 0,0 -1.852602,-1.05199 -1.852602,-1.19708 0,-0.14512 -1.000406,-1.37846 -1.000406,-1.37846 l 0.222306,-2.24908 c 0,0 0.592835,-1.01569 0.666947,-1.34218 0.07408,-0.32647 0.518723,-1.52356 0.518723,-1.52356 l 0.03712,-0.68924 -1.667353,-0.72551 -1.741449,-1.26962 -0.07408,-0.97943 0.518722,-2.0314 1.407992,-2.17653 2.000811,-2.3579 2.556605,-1.30591 2.853024,-1.26962 1.889658,-0.68924 0.629891,-0.29021 1.037462,-3.84517 -1.370936,-0.8706 -4.853834,-1.41476 -4.154342,-1.20083 -3.143985,-1.74422 -2.619982,-2.25726 L 18.88412,100.73007 16.159322,97.241604 13.748941,95.292169 12.281749,92.214121 11.548161,90.059469 10.500155,88.315252 9.1377643,85.955399 8.4041764,83.390346 V 81.030493 L 8.7185621,76.31082 9.5569666,73.335364 11.028798,69.669408 9.6949193,69.197822 7.2865224,68.653691 5.1375029,67.601717 2.543841,65.352633 1.2470181,63.321214 0.69123917,61.616293 0.46891798,60.890785 l -0.185249,-1.81377 0.25936139,-1.886298 0.88925273,-2.756942 1.2597667,-3.627508 0.6669476,-3.373602 0.5187228,-3.119681 0.6298913,-4.606952 -0.5928351,-2.756911 0.4446263,-2.756927 1.3338792,-2.829471 1.5562003,-1.233367 2.2231319,-1.015701 2.8900629,-0.870597 3.927541,-0.870612 2.074924,-0.435315 2.890063,-0.362754 0.353698,-0.12816 0.05248,-1.333847 0.104801,-1.744234 0.209601,-2.616334 0.366786,-3.591075 0.366802,-2.103355 0.838388,-3.026736 0.681204,-2.2059477 0.995589,-1.3338151 2.148396,-0.8721327 1.414791,-0.7182118 1.152806,-0.1537609 h 2.305581 l 1.938794,0.5130108 1.362392,0.9747252 1.20519,1.3338151 0.785988,1.9494501 0.419202,2.616318 v 2.462461 l -0.471602,1.949434 -0.838389,2.10334 -1.100389,2.257244 0.209601,1.846826 1.938778,-1.744218 3.929989,-3.488466 3.301186,-2.975456 2.986784,-2.257228 3.248785,-2.616382 4.244375,-2.6163338 2.724782,-1.7442173 4.453976,-2.7189586 3.98239,-2.61635 2.095979,-1.33383112 1.886394,-0.35912192 1.20519,0.0512003 1.152807,1.02600544 1.833977,1.7442333 0.995606,0.8208364 0.471602,1.3851434 0.681188,1.8467939 0.786004,1.1799424 0.314402,2.1033226 0.157121,3.334578 -0.366802,2.205948 -0.99559,1.949418 -2.305596,2.359853 -4.401576,2.821551 -5.187579,2.154635 -5.239964,2.103356 -9.431955,5.078795 -5.868767,3.385874 -1.048006,1.795514 v 1.590344 l 0.157281,1.539016 0.628803,2.205932 1.15279,2.718959 1.152791,1.590344 1.100389,1.333831 0.733604,0.615588 1.257591,0.615635 2.095995,0.205281 2.09598,0.30781 1.729193,0.307793 2.043595,0.769525 2.934383,1.231222 1.729194,0.0512 2.410381,-0.10256 3.196401,-0.76954 4.087174,-1.077318 5.344764,-1.385127 4.715977,-0.974726 4.715978,-0.51301 4.768393,-0.35909 2.672383,0.0512 4.55876,1.282503 4.453975,1.744233 4.34918,2.205948 3.3536,2.359853 2.30558,1.744233 2.88198,2.872847 1.9912,2.462429 2.98678,4.206711 1.41478,2.257244 2.51519,5.694383 1.25761,3.847588 1.10037,5.2327 0.26202,2.975456 0.26199,5.950912 0.0525,4.206678 0.57638,0.30781 3.92999,-0.205281 h 2.5152 l 1.83398,1.026022 1.57199,1.590328 1.15279,3.026765 0.31442,1.7442 0.0523,4.05279 -0.524,3.12937 -1.15281,2.82155 -2.20078,3.28326 -3.77279,3.33458 -3.03917,1.74423 -6.18318,3.12933 -7.44074,2.41117 -4.2444,1.17991 -1.62437,2.05204 -2.14843,2.20595 -1.88638,1.48772 -2.82957,1.02602 -6.549966,0.87212 -9.065153,0.87213 -8.069563,0.82082 -7.912362,0.71819 -8.226748,0.46172 -3.406003,-0.82082 -2.515181,-0.87212 -3.039184,-1.48773 -1.624393,-0.10256 -4.349175,0.25652 -3.039185,0.56433 z"
     id="path302" /></svg>
