<?xml version="1.0" encoding="UTF-8" standalone="no"?>
<!-- Created with Inkscape (http://www.inkscape.org/) -->

<svg
   width="87.499535mm"
   height="87.500893mm"
   viewBox="0 0 87.499534 87.500891"
   version="1.1"
   id="svg5"
   xml:space="preserve"
   inkscape:version="1.2.1 (9c6d41e410, 2022-07-14)"
   sodipodi:docname="bunny.svg"
   xmlns:inkscape="http://www.inkscape.org/namespaces/inkscape"
   xmlns:sodipodi="http://sodipodi.sourceforge.net/DTD/sodipodi-0.dtd"
   xmlns="http://www.w3.org/2000/svg"
   xmlns:svg="http://www.w3.org/2000/svg"><sodipodi:namedview
     id="namedview7"
     pagecolor="#ffffff"
     bordercolor="#000000"
     borderopacity="0.25"
     inkscape:showpageshadow="2"
     inkscape:pageopacity="0.0"
     inkscape:pagecheckerboard="0"
     inkscape:deskcolor="#d1d1d1"
     inkscape:document-units="mm"
     showgrid="false"
     inkscape:zoom="1.0859962"
     inkscape:cx="-284.07098"
     inkscape:cy="340.70101"
     inkscape:window-width="1920"
     inkscape:window-height="1017"
     inkscape:window-x="1912"
     inkscape:window-y="-3"
     inkscape:window-maximized="1"
     inkscape:current-layer="svg5" /><defs
     id="defs2" /><path
     style="fill:none;stroke:#000000;stroke-width:0.352121;stop-color:#000000"
     d="m 26.877832,86.030317 -3.51994,0.24939 -2.29259,-0.27207 -1.62103,-0.43076 c 0,0 -1.15787,-0.65749 -1.15787,-0.74817 0,-0.0907 -0.62525,-0.86153 -0.62525,-0.86153 l 0.13894,-1.40567 c 0,0 0.37052,-0.6348 0.41684,-0.83886 0.0463,-0.20404 0.3242,-0.95222 0.3242,-0.95222 l 0.0232,-0.43077 -1.04209,-0.45344 -1.0884,-0.79351 -0.0463,-0.61214 0.3242,-1.26962 0.87999,-1.36032 1.2505,-1.47368 1.59787,-0.81619 1.78313,-0.79351 1.18103,-0.43077 0.39368,-0.18138 0.64841,-2.40322 -0.85683,-0.54412 -3.03363,-0.88422 -2.59645,-0.75052 -1.96498,-1.09013 -1.63748,-1.41078 -2.55447,-2.11615 -1.70299,-2.18028 -1.50648,-1.21839 -0.91699,-1.92377 -0.45849,-1.34665 -0.655,-1.09013 -0.85149,-1.4749 -0.45849,-1.60315 v -1.4749 l 0.19649,-2.94978 0.524,-1.85965 0.91989,-2.29121 -0.83367,-0.29474 -1.50524,-0.34008 -1.34313,-0.65748 -1.62103,-1.40567 -0.81050996,-1.26963 -0.34736,-1.06557 -0.13895,-0.45344 -0.11578,-1.1336 0.1621,-1.17893 0.55578,-1.72308 0.78734996,-2.26718 0.41684,-2.10849 0.3242,-1.94979 0.39368,-2.87933 -0.37052,-1.72306 0.27789,-1.72307 0.83367,-1.76841 0.97262,-0.77085 1.38945,-0.63481 1.80628,-0.54412 2.4547,-0.54413 1.29682,-0.27207 1.80628,-0.22672 0.22106,-0.0801 0.0328,-0.83365 0.0655,-1.09014 0.131,-1.6352 0.22924,-2.24441 0.22925,-1.3145898 0.52399,-1.8917 0.42575,-1.37871 0.62224,-0.83363 1.34274,-0.54508 0.88424,-0.44888 0.7205,-0.0961 h 1.44098 l 1.21174,0.32063 0.85149,0.6092 0.75324,0.83363 0.49124,1.2184 0.262,1.63519 v 1.5390298 l -0.29475,1.21839 -0.52399,1.31458 -0.68774,1.41077 0.131,1.15426 1.21173,-1.09013 2.45623,-2.18028 2.06323,-1.85965 1.86673,-1.4107598 2.03048,-1.63523 2.65272,-1.6352 1.70298,-1.09013 2.78372,-1.69934 2.48898,-1.63521 1.30998,-0.83363998 1.17899,-0.22445 0.75324,0.032 0.7205,0.64125 1.14623,1.09013998 0.62225,0.51302 0.29475,0.86571 0.42574,1.15424 0.49125,0.73746 0.1965,1.31457 0.0982,2.0841 -0.22925,1.37871 -0.62224,1.2183798 -1.44099,1.4749 -2.75097,1.76346 -3.24222,1.34664 -3.27496,1.31459 -5.89494,3.17423 -3.66796,2.11616 -0.655,1.12219 v 0.99396 l 0.0983,0.96188 0.393,1.3787 0.72049,1.69934 0.72049,0.99396 0.68774,0.83364 0.4585,0.38474 0.78599,0.38477 1.30999,0.1283 1.30998,0.19238 1.08074,0.19237 1.27724,0.48095 1.83398,0.76951 1.08074,0.032 1.50648,-0.0641 1.99774,-0.48096 2.55447,-0.67332 3.34046,-0.8657 2.94747,-0.6092 2.94747,-0.32063 2.98023,-0.22443 1.67023,0.032 2.84921,0.80156 2.78372,1.09014 2.71822,1.37871 2.09599,1.4749 1.44098,1.09014 1.80123,1.79552 1.24449,1.53901 1.86673,2.62918 0.88423,1.41077 1.57199,3.55897 0.786,2.40473 0.68773,3.27042 0.16376,1.85965 0.16374,3.7193 0.0328,2.62916 0.36024,0.19238 2.45623,-0.1283 h 1.57199 l 1.14623,0.64126 0.98249,0.99395 0.72049,1.89172 0.19651,1.09012 0.0327,2.53298 -0.3275,1.95584 -0.7205,1.76346 -1.37548,2.05203 -2.35798,2.0841 -1.89947,1.09014 -3.86447,1.95582 -4.65044,1.50697 -2.65273,0.73744 -1.01523,1.28252 -1.34276,1.37871 -1.17898,0.92982 -1.76847,0.64126 -4.09371,0.54507 -5.66569,0.54508 -5.04345,0.51301 -4.9452,0.44887 -5.14169,0.28857 -2.12874,-0.51301 -1.57198,-0.54507 -1.89948,-0.92983 -1.01524,-0.0641 -2.71822,0.16033 -1.89948,0.3527 z"
     id="path302" /></svg>
