<?xml version="1.0" encoding="UTF-8" standalone="no"?>
<!-- Created with Inkscape (http://www.inkscape.org/) -->

<svg
   width="100.00001mm"
   height="100.00155mm"
   viewBox="0 0 100.00001 100.00155"
   version="1.1"
   id="svg5"
   xml:space="preserve"
   inkscape:version="1.2.1 (9c6d41e410, 2022-07-14)"
   sodipodi:docname="bunny_HD.svg"
   xmlns:inkscape="http://www.inkscape.org/namespaces/inkscape"
   xmlns:sodipodi="http://sodipodi.sourceforge.net/DTD/sodipodi-0.dtd"
   xmlns="http://www.w3.org/2000/svg"
   xmlns:svg="http://www.w3.org/2000/svg"><sodipodi:namedview
     id="namedview7"
     pagecolor="#ffffff"
     bordercolor="#000000"
     borderopacity="0.25"
     inkscape:showpageshadow="2"
     inkscape:pageopacity="0.0"
     inkscape:pagecheckerboard="0"
     inkscape:deskcolor="#d1d1d1"
     inkscape:document-units="mm"
     showgrid="false"
     inkscape:zoom="1.0859962"
     inkscape:cx="26.243186"
     inkscape:cy="46.040678"
     inkscape:window-width="1920"
     inkscape:window-height="1017"
     inkscape:window-x="1912"
     inkscape:window-y="-3"
     inkscape:window-maximized="1"
     inkscape:current-layer="svg5" /><defs
     id="defs2" /><path
     style="fill:none;stroke:#000000;stroke-width:0.402426;stop-color:#000000"
     d="m 30.717687,98.320886 -4.02281,0.285018 -2.620117,-0.310938 -1.852616,-0.4923 c 0,0 -1.323287,-0.751421 -1.323287,-0.855056 0,-0.103658 -0.714575,-0.984611 -0.714575,-0.984611 l 0.158789,-1.606489 c 0,0 0.423454,-0.725489 0.476391,-0.958702 0.05291,-0.23319 0.370517,-1.088257 0.370517,-1.088257 l 0.02651,-0.492312 -1.190966,-0.51822 -1.243893,-0.906873 -0.05291,-0.699592 0.370516,-1.451002 1.005708,-1.55466 1.429151,-1.684215 1.826147,-0.932793 2.037873,-0.906874 1.349756,-0.492311 0.449923,-0.207293 0.741044,-2.746551 -0.97924,-0.621855 -3.467024,-1.010543 -2.967388,-0.857741 -2.245703,-1.24587 -1.871416,-1.612329 -2.91941,-2.41847 L 11.542373,69.458285 9.8206719,68.065832 8.7726777,65.867226 8.2486863,64.328189 7.5001109,63.08232 6.5269743,61.396711 6.0029829,59.56453 V 57.878921 L 6.2275441,54.507725 6.8264044,52.3824 7.8777129,49.76386 6.9249421,49.427012 5.2046586,49.038348 3.6696447,48.286938 1.8170291,46.680449 0.89072703,45.229436 0.49374205,44.011635 0.3349412,43.493415 0.20262049,42.197865 0.38787862,40.850509 1.0230591,38.881265 1.9228925,36.290188 2.3992836,33.880472 2.7697999,31.652129 3.2197223,28.361448 2.7962686,26.392226 3.1138589,24.422993 4.0666297,22.401942 5.1782013,21.520966 6.7661527,20.795465 8.8304837,20.17361 11.63587,19.551744 l 1.482088,-0.310939 2.064331,-0.25911 0.252642,-0.09154 0.03749,-0.952748 0.07486,-1.245881 0.149715,-1.86881 0.26199,-2.565054 0.262002,-1.502396 0.598848,-2.1619547 0.486575,-1.575677 0.711135,-0.9527251 1.534568,-0.6229519 1.010565,-0.5130085 0.823433,-0.1098292 h 1.646843 l 1.384854,0.3664363 0.973136,0.6962323 0.860851,0.9527251 0.56142,1.3924646 0.29943,1.8687991 v 1.7589 l -0.336859,1.392453 -0.598849,1.502386 -0.785993,1.612317 0.149715,1.319161 1.384842,-1.245869 2.807135,-2.491762 2.35799,-2.125326 2.133417,-1.612306 2.320561,-1.868844 3.031696,-1.86881 1.946273,-1.2458695 3.181412,-1.9421132 2.844564,-1.8688215 1.497128,-0.95273645 1.347424,-0.25651566 0.86085,0.0365716 0.823433,0.73286106 1.309984,1.24588095 0.711147,0.5863117 0.336859,0.9893881 0.486563,1.3191385 0.561431,0.842816 0.224573,1.5023737 0.112229,2.3818414 -0.262001,1.5756773 -0.711136,1.392441 -1.646854,1.685609 -3.143983,2.015394 -3.705414,1.539025 -3.742831,1.502397 -6.737111,3.627711 -4.191976,2.418481 -0.748576,1.28251 v 1.13596 l 0.112344,1.099298 0.449145,1.575665 0.823421,1.942114 0.823422,1.13596 0.785993,0.952736 0.524003,0.439706 0.898279,0.439739 1.497139,0.14663 1.497128,0.219864 1.235138,0.219852 1.459711,0.54966 2.095988,0.879445 1.235138,0.03657 1.721701,-0.07326 2.283144,-0.549671 2.919409,-0.769513 3.817689,-0.989377 3.368556,-0.696232 3.368555,-0.366436 3.405995,-0.256493 1.908845,0.03657 3.256257,0.916074 3.181411,1.245881 3.106554,1.575677 2.39543,1.685609 1.646843,1.245881 2.05856,2.052034 1.422282,1.758878 2.133417,3.004793 1.010554,1.612317 1.79657,4.067416 0.89829,2.748278 0.785981,3.737643 0.187156,2.125325 0.187132,4.250652 0.03749,3.00477 0.411705,0.219864 2.807135,-0.146629 h 1.79657 l 1.309984,0.732872 1.122852,1.135949 0.823421,2.161977 0.224584,1.245858 0.03737,2.89485 -0.374288,2.235258 -0.823433,2.015394 -1.571985,2.345189 -2.694849,2.381842 -2.170835,1.24588 -4.41656,2.235235 -5.314817,1.722261 -3.031708,0.842793 -1.160269,1.465745 -1.534591,1.575677 -1.347413,1.062657 -2.02112,0.732873 -4.67855,0.62294 -6.475109,0.622952 -5.763974,0.5863 -5.651687,0.512997 -5.876249,0.329796 -2.432859,-0.5863 -1.796558,-0.62294 -2.170846,-1.062669 -1.16028,-0.07326 -3.106554,0.183235 -2.170846,0.403088 z"
     id="path302" /></svg>
