<?xml version="1.0" encoding="UTF-8" standalone="no"?>
<!-- Created with SVGEdit -->

<svg
   version="1.1"
   viewBox="0 0 30.000003 30.000001"
   width="30.000002mm"
   height="30.000002mm"
   id="svg11"
   sodipodi:docname="circle_30.svg"
   inkscape:version="1.2.1 (9c6d41e410, 2022-07-14)"
   xmlns:inkscape="http://www.inkscape.org/namespaces/inkscape"
   xmlns:sodipodi="http://sodipodi.sourceforge.net/DTD/sodipodi-0.dtd"
   xmlns="http://www.w3.org/2000/svg"
   xmlns:svg="http://www.w3.org/2000/svg">
  <path
     id="path339"
     style="fill:none;fill-opacity:1;stroke:#000000;stroke-width:0.680396;stroke-opacity:1;stop-color:#000000"
     d="m 17.954461,0.63803307 c 0.954318,0.19528167 1.874858,0.48329163 2.751796,0.85420483 0.876937,0.3709131 1.710271,0.8247295 2.490178,1.3516239 0.779906,0.5268945 1.506385,1.1268671 2.169611,1.7900926 0.663225,0.6632256 1.263198,1.3897042 1.790092,2.1696107 0.526895,0.7799065 0.980711,1.613241 1.351625,2.4901782 0.370913,0.8769377 0.658923,1.7974777 0.854205,2.7517947 0.195281,0.954318 0.297835,1.942414 0.297835,2.954462 0,1.012048 -0.102553,2.000144 -0.297835,2.954462 -0.195281,0.954318 -0.483291,1.874858 -0.854205,2.751795 -0.370913,0.876937 -0.824729,1.710272 -1.351624,2.490178 -0.526894,0.779907 -1.126867,1.506386 -1.790092,2.169611 -0.663226,0.663226 -1.389705,1.263198 -2.169611,1.790093 -0.779907,0.526894 -1.613241,0.980711 -2.490179,1.351624 -0.876937,0.370913 -1.797477,0.658923 -2.751795,0.854205 C 17.000144,29.55725 16.012048,29.659803 15,29.659803 c -1.012048,0 -2.000144,-0.102553 -2.954462,-0.297835 C 11.091221,29.166686 10.170681,28.878676 9.2937433,28.507763 8.4168061,28.13685 7.5834716,27.683033 6.8035651,27.156139 6.0236586,26.629244 5.29718,26.029272 4.6339544,25.366046 3.9707289,24.70282 3.3707563,23.976342 2.8438618,23.196435 2.3169674,22.416528 1.863151,21.583194 1.4922379,20.706257 1.1213247,19.829319 0.83331474,18.908779 0.63803307,17.954461 0.44275139,17.000144 0.34019801,16.012048 0.34019801,15 c 0,-1.012048 0.10255339,-2.000144 0.29783507,-2.954461 C 0.83331476,11.091221 1.1213247,10.170681 1.4922379,9.2937435 1.8631511,8.4168062 2.3169675,7.5834718 2.8438619,6.8035653 3.3707564,6.0236588 3.970729,5.2971802 4.6339546,4.6339546 5.2971802,3.970729 6.0236588,3.3707564 6.8035653,2.8438619 7.5834718,2.3169675 8.4168062,1.8631511 9.2937435,1.4922379 10.170681,1.1213247 11.091221,0.83331476 12.045539,0.63803308 12.999856,0.4427514 13.987952,0.34019801 15,0.34019801 c 1.012048,0 2.000144,0.10255338 2.954461,0.29783506 z"
     sodipodi:nodetypes="sssssssssssssssssssssssssssssssss" />
  <defs
     id="defs15" />
  <sodipodi:namedview
     id="namedview13"
     pagecolor="#ffffff"
     bordercolor="#000000"
     borderopacity="0.25"
     inkscape:showpageshadow="2"
     inkscape:pageopacity="0.0"
     inkscape:pagecheckerboard="0"
     inkscape:deskcolor="#d1d1d1"
     inkscape:document-units="mm"
     showgrid="false"
     inkscape:zoom="5.6006854"
     inkscape:cx="71.687655"
     inkscape:cy="43.208998"
     inkscape:window-width="1920"
     inkscape:window-height="1137"
     inkscape:window-x="-8"
     inkscape:window-y="-8"
     inkscape:window-maximized="1"
     inkscape:current-layer="svg11" />
</svg>
