<?xml version="1.0" encoding="UTF-8" standalone="no"?>
<!-- Created with Inkscape (http://www.inkscape.org/) -->

<svg
   width="97.4907mm"
   height="71.21933mm"
   viewBox="0 0 97.4907 71.21933"
   version="1.1"
   id="svg838"
   xml:space="preserve"
   inkscape:version="1.2.1 (9c6d41e410, 2022-07-14)"
   sodipodi:docname="dragon.svg"
   xmlns:inkscape="http://www.inkscape.org/namespaces/inkscape"
   xmlns:sodipodi="http://sodipodi.sourceforge.net/DTD/sodipodi-0.dtd"
   xmlns="http://www.w3.org/2000/svg"
   xmlns:svg="http://www.w3.org/2000/svg"><sodipodi:namedview
     id="namedview840"
     pagecolor="#ffffff"
     bordercolor="#000000"
     borderopacity="0.25"
     inkscape:showpageshadow="2"
     inkscape:pageopacity="0.0"
     inkscape:pagecheckerboard="0"
     inkscape:deskcolor="#d1d1d1"
     inkscape:document-units="mm"
     showgrid="false"
     inkscape:zoom="1.0859962"
     inkscape:cx="29.92644"
     inkscape:cy="211.78712"
     inkscape:window-width="1920"
     inkscape:window-height="1017"
     inkscape:window-x="1912"
     inkscape:window-y="-3"
     inkscape:window-maximized="1"
     inkscape:current-layer="svg838" /><defs
     id="defs835" /><path
     style="fill:none;stroke:#000000;stroke-width:0.468;stop-color:#000000"
     d="m 63.823086,68.032512 -1.7012,-0.25841 -1.33512,-0.0215 -1.46433,0.23687 -0.73216,0.17228 -1.16285,0.0215 -0.73216,0.21535 -0.64603,0.43068 -0.43068,0.0861 -0.6891,0.0215 -0.15074,-0.25841 0.49529,-0.90444 0.25841,-0.49529 -0.53835,-0.0861 -0.21535,-0.17227 -0.15074,-0.30148 0.30148,-0.40915 0.17228,-0.40915 0.23687,-0.68909 0.36608,-0.38762 0.21535,-0.43068 0.1938,-0.58143 0.23688,-0.62449 0.27994,-0.30148 0.60296,-0.17227 0.36609,-0.58143 0.40915,-0.25841 0.45222,-0.19381 0.53835,-0.10767 h 0.7537 l -0.19381,-0.30148 -0.55989,-0.7537 -0.32301,-0.839828 -0.25841,-0.90444 -0.27995,-1.07671 -0.10767,-0.83983 0.0215,-1.37819 0.0861,-1.61507 0.25841,-2.19649 0.21535,-1.03364 0.34455,-1.20592 0.49528,-1.22745 0.58143,-1.35666 0.62449,-1.03364 2.00268,-2.77791 1.11978,-1.76581 1.20592,-2.110354 1.11978,-2.196491 0.10921,-0.691192 0.10659,-1.00498 -0.19795,-0.730896 -0.30454,-0.380675 -0.53294,-0.334994 -0.71567,-0.19795 -0.9593,-0.07614 -0.88317,0.182724 -0.70044,0.228407 -0.48726,0.502489 -0.91362,1.142026 -0.66999,0.730895 -1.00498,1.309521 -0.5634,0.746123 -0.41113,1.202933 -0.66999,1.857694 -0.88316,2.86268 -0.45681,1.21816 -1.33998,3.25857 -0.45681,1.55316 -0.91362,1.30952 -0.48726,1.27907 -0.94408,3.34994 -0.94407,1.70542 -0.76135,1.00498 -0.60908,1.035438 -0.42636,0.63953 0.0304,0.88317 0.15228,1.12679 0.12181,0.94408 -0.12181,1.06588 -0.335,1.1268 -0.36545,1.18771 -0.48726,1.00498 -0.7918,0.85271 -1.18771,0.76135 -1.43134,0.36545 -1.00498,0.0609 -1.64451,-0.0609 -1.00499,-0.18272 -1.33997,-0.70045 -1.03544,-0.7918 -0.63953,-0.51772 -1.46179,0.0914 -1.58361,0.15227 h -1.03544 l -0.15227,0.76135 -0.24363,0.7309 -0.60908,0.60908 -2.22314,0.54817 -2.22314,0.21318 -2.55814,0.0609 -1.97951,0.0305 -1.64451,-0.27408 -0.42636,-0.21318 -0.57862,-0.63954 -0.7309,-3.19766 -1.00498,-0.45681 -1.15725,-0.7309 -1.06589,-0.82226 -0.82226,-0.82225 -0.91362,-0.91362 -1.27907,-0.0305 -0.76135,0.18273 -0.15226,-0.12182 -0.0609,-0.36545 -0.42636,-0.24363 0.0914,-0.76135 0.45681,-0.85271 0.42636,-0.42636 0.0305,-0.487258 -0.27409,-0.91362 -0.33499,-0.51772 -0.63953,-1.06589 0.0914,-1.46179 0.0609,-0.97453 -0.48727,-1.30952 0.0609,-0.88317 0.15227,-1.06588 -0.0609,-0.82226 -0.0305,-0.7309 0.27409,-0.85271 0.3959,-0.94407 v -1.18771 l 0.51772,-1.46179 0.48727,-0.70044 0.36544,-0.76135 -0.15227,-0.82226 0.36545,-0.76135 0.48727,-0.76135 0.70044,-1.309525 0.66998,-1.065889 0.42636,-0.274085 0.70044,-1.06589 0.30454,-0.639535 0.76135,-1.035436 0.63954,-0.334994 0.48726,-0.85271 0.51772,-0.548172 0.63953,-0.548171 0.45681,-0.334995 1.00498,-1.157253 0.66999,-0.548171 0.70044,-0.395902 0.3959,-0.578625 0.57863,-0.548172 0.66999,-0.517718 0.27408,-0.517718 0.63954,-1.035436 0.76135,-0.791803 0.24363,-1.035436 h -0.97453 -1.94906 l -2.61904,0.304541 -3.16721,0.15227 -1.67497,-0.06091 -1.76633,0.365448 -1.15725,0.04568 -0.63954,0.137041 -0.31977,0.548172 -0.41112,0.25886 -0.86794,-0.228404 -0.88317,-0.258861 -1.1267998,0.04568 -1.32474,-0.182724 -0.54818,0.197951 -0.73089,0.30454 -0.98976,-0.121817 -0.88316,-0.730895 -0.97453,-0.487262 -0.98976,-0.426358 -0.46665,-0.647348 -0.12921,-0.8183 0.36608,-0.753698 0.60296,-0.882904 0.58142,-0.516821 0.36609,-0.581424 -0.38754,-0.753701 -1.05518,-0.732163 -0.96904,-0.538355 -0.99057,-0.279945 -0.81829997,-0.236877 -0.25841,-0.473752 0.21534,-0.301479 0.53834997,-0.08614 h 0.8183 l 1.33512,0.150738 1.67968,0.366083 1.8304,0.646028 1.65814,0.796766 1.572,0.710629 0.9259698,0.215341 1.01211,0.258411 0.9475,0.04307 h 0.8183 l 0.19381,-0.323014 0.23688,-0.409149 0.25841,0.08613 0.21534,0.279945 0.12921,0.279945 0.45221,0.129207 0.8183,-0.150741 1.74428,-0.0646 1.52893,-0.387617 2.41183,-0.66756 2.17496,-0.7537 1.46432,-0.409149 0.51682,-0.409149 0.10767,-0.409152 -0.38761,-0.04307 -0.73216,0.107672 -1.76581,0.344548 -2.13189,0.10767 -1.05518,0.02154 -1.48586,-0.129204 -1.46433,-0.19381 -1.42125,-0.323014 -1.572,-0.602956 -0.38762,0.02154 -0.45222,-0.215345 -0.32301,0.215345 -0.77523,0.301479 -0.64603,-0.02154 -0.38761,-0.7537 -0.0646,-0.624491 h -0.58143 l -0.6244898,0.193808 -0.55989,-0.215342 -0.21534,-0.947507 -0.83984,-0.409149 -0.99058,-0.839836 -0.96903,-0.796766 -0.55989,-1.098246 -0.40915,-0.882901 -0.0646,-0.904438 0.27994,-0.925971 0.51682,-0.8398348 0.7537,-0.409151 1.03364,-0.387615 0.6245,-0.150741 0.60296,0.150741 0.43068,-0.04307 0.55989,-0.452218 0.6029598,-0.45222 0.79676,-0.08613 0.62449,0.02154 1.14132,0.473752 0.83984,0.818301 0.68909,0.947504 0.60296,0.8398358 0.40915,0.323013 0.7537,0.129204 0.83983,0.0646 0.53836,0.08614 0.32301,-0.430687 0.34455,-0.9690388 0.1938,-0.55989 0.79677,-0.516821 1.27052,-0.150738 1.22745,-0.279945 1.91654,-0.366083 1.65814,-0.129207 2.4549,0.0646 h 1.37819 l 1.24899,-0.236877 0.66756,-0.646025 0.60296,-1.421259 0.71063,-1.636602 0.68909,-1.205915 0.6891,-1.11978 c 0,0 0.66756,-0.77523197 0.7537,-0.77523197 0.0861,0 0.96904,-0.538356 0.96904,-0.538356 l 0.71062,-0.172275 0.40915,0.129206 0.0862,0.68909497 -0.38762,0.839835 -0.79677,0.969041 -0.32301,1.313588 0.30148,0.882901 1.01211,0.344548 0.9475,0.150739 1.29206,-0.215342 1.80887,-0.409149 1.87348,-0.495287 1.65814,-0.538355 1.7012,-0.667562 1.91654,-0.882904 1.22745,-0.495287 0.83984,-0.344546 0.51682,-0.215344 0.36608,0.19381 -0.0215,0.495286 -0.68909,0.753698 -1.16285,1.227449 -2.47644,1.744274 -2.28262,1.033642 -3.0148,1.464326 -2.13188,0.925973 -1.5074,0.646025 v 0.4306858 l 0.25841,0.323014 0.49529,0.02154 1.83041,-0.150741 0.62449,-0.150738 0.0646,-0.215344 0.36608,-0.04307 0.34455,0.1507388 0.64602,0.430683 0.49529,0.49529 1.35666,-0.215345 1.65813,-0.215342 1.65814,-0.129204 h 0.34455 l 0.1292,0.387615 -0.23688,0.366083 -0.51682,0.516821 -1.39972,0.839835 -0.94751,0.387615 -0.71062,0.301479 -0.47376,0.366083 0.0431,0.452218 0.32301,0.258411 1.35666,0.236876 1.6366,0.495286 1.05518,0.387618 0.32301,0.55989 -0.0215,0.538355 -0.49529,0.387615 -1.31359,0.516821 -1.61506,0.602959 -0.47376,0.193807 -0.34454,0.689097 0.53835,0.732163 c 0,0 0.53836,0.344548 0.6245,0.409149 0.0861,0.0646 0.92597,0.796766 0.92597,0.796766 l 0.43068,0.538356 0.15074,0.473755 -0.34455,0.516821 -0.68909,0.236876 -1.5074,0.02154 -0.8829,0.08613 -0.0646,0.602959 -0.36608,0.646028 0.0215,0.92597 0.17227,1.399726 -0.0215,1.162849 -0.21534,0.990573 -0.34455,0.495287 -0.19381,1.184381 -0.25841,0.538355 -0.53836,0.732166 -0.34454,1.076711 -0.27995,0.732163 -0.45222,0.344549 -0.43068,0.473752 -0.32301,1.098246 -0.27995,0.452217 -0.55989,0.30148 -0.36608,0.581424 -0.58142,0.882902 -0.45222,0.430686 -0.6891,0.387614 -0.36608,0.366083 -0.0646,0.689094 -0.23688,1.076712 -0.40915,0.409151 -0.73216,0.710627 -0.12921,0.55989 -0.27994,0.53835 -0.30148,0.51682 -0.17228,0.64603 v 0.7537 l -0.0215,0.9475 0.23688,0.49529 0.47375,0.27995 0.88291,0.0861 0.73216,-0.30148 0.8829,-0.77523 0.53836,-0.92597 0.64603,-0.62449 0.27994,-0.34455 0.45222,-0.92597 0.47375,-0.51682 0.30148,-0.73217 0.25841,-1.679662 0.30148,-0.796767 0.45222,-0.602956 0.21534,-1.528929 0.25841,-0.602959 0.53836,-0.516821 0.25841,-0.452221 0.15074,-0.796766 0.51682,-0.495287 0.62449,-0.538355 0.12921,-0.904436 0.10767,-1.11978 0.36608,-0.796767 0.71063,-0.667562 0.27995,-0.624491 0.21534,-0.969041 0.51682,-0.66756 0.60296,-0.236876 0.58142,-1.335122 0.47375,-0.990574 0.38762,-0.516821 0.8829,-0.04307 0.36608,-0.602959 0.55989,-1.335121 0.73217,-1.055177 0.62449,-0.55989 h 0.83983 l 0.49529,-0.775232 0.60296,-0.775232 0.43068,-0.215342 0.45222,0.387615 0.25841,0.150741 0.77524,-0.495287 0.79625,-1.056031 0.7918,-0.487265 0.51772,0.365448 0.54817,-0.03045 0.91362,-0.639535 0.73089,-0.517718 0.45681,-0.243631 0.63954,0.334995 h 0.60908 l 0.85271,-0.334995 1.09634,-0.456811 0.51772,0.365448 0.66999,0.21318 0.7918,-0.243633 1.30952,-0.365448 0.48727,0.274087 0.54817,0.517718 0.97453,-0.09136 1.5227,-0.274085 0.85271,0.09136 0.27408,0.609081 0.54818,0.03045 1.00498,0.06091 0.88316,0.15227 0.335,0.487265 0.30454,0.517715 0.85271,0.152271 0.88316,0.182724 0.57863,0.243633 0.15227,0.730896 0.51772,0.578625 0.73089,0.15227 0.7309,0.274085 0.27408,0.761352 0.39591,0.822256 0.76135,0.304541 0.51772,0.669988 0.15226,0.822256 0.86794,0.685215 0.24364,0.91362 0.0914,0.639535 0.60908,0.715669 0.27408,0.502488 0.1675,0.487265 0.50249,-0.03045 0.27409,-0.274087 0.35022,-0.669986 0.44158,-0.487264 0.44158,-0.289314 0.53295,-0.274085 0.2284,-0.426357 0.0914,-0.898393 -0.0609,-1.11157 0.12181,-0.609079 0.27409,-0.487264 0.36545,-0.03045 0.68521,0.441582 0.36545,0.746125 0.44743,0.543494 0.34455,-0.473755 0.38761,-0.818301 0.6891,-0.990574 0.9475,-0.646025 h 0.73217 l 0.51682,1.593533 0.30148,0.861367 0.77523,-0.08613 1.33512,-0.646028 1.6366,-0.473753 1.20592,-0.301479 0.21534,0.430683 -0.6891,0.990577 -0.8183,1.076711 -0.68909,0.753697 -0.10767,0.430684 0.1292,0.387617 0.47376,0.172273 1.18438,0.495287 0.8829,0.301479 0.21534,0.646028 -0.43068,0.430683 -0.83984,0.193808 -0.9475,0.25841 -0.30148,0.258411 -0.0431,0.538355 0.71063,0.473755 0.40915,0.646026 -0.34455,0.387617 -0.71063,0.323011 -1.05517,0.107672 -1.55047,-0.0646 -0.53835,0.129207 -0.10767,0.193807 0.25841,0.387617 -0.0215,0.581422 -0.7537,0.581424 -1.07671,-0.129204 -1.20591,-0.323013 -0.66757,0.430683 -0.23687,1.141315 0.27994,1.11978 1.03365,2.196489 1.14131,2.045753 0.8183,2.002672 0.68909,2.02422 0.47376,1.46433 0.40915,1.22745 0.21534,3.18706 v 1.39973 l -0.10767,1.95961 -0.19381,2.11036 -0.32301,1.85194 -0.47376,1.39973 -0.68909,1.938068 -1.37819,2.2611 -1.59353,2.04575 -1.61901,1.34889 -1.82724,1.23339 -1.38566,0.76135 -1.9186,0.54817 -2.6495,0.21318 c 0,0 -1.65974,-0.0609 -1.85769,-0.0609 -0.19795,0 -2.57336,-0.2284 -2.57336,-0.2284 l -3.06063,-0.45681 0.21318,0.5634 0.10659,0.77657 -0.60908,0.0609 -1.23339,-0.50249 -1.33998,-0.44158 -1.20293,-0.15227 -1.1877,-0.18273 z"
     id="path971" /><path
     style="fill:none;stroke:#000000;stroke-width:0.468;stop-color:#000000"
     d="m 82.816276,45.055464 -0.38762,-1.37819 -0.47375,-1.67967 -0.30148,-0.60296 -0.77523,0.0431 -0.55989,0.77523 -0.30148,1.42126 -0.55989,0.6891 -0.73216,0.51682 -0.34455,0.9475 -1.07671,0.90444 -0.43069,0.47375 0.17228,0.86137 0.25841,1.20592 -0.0431,1.80887 -0.21534,1.46433 -0.38762,1.29206 -0.51682,1.07671 0.94751,0.17227 1.37819,-0.12921 1.85194,-0.99057 0.8183,-0.99057 1.11978,-1.11978 0.55989,-1.46433 0.0431,-1.33512 0.1292,-1.11978 -0.17227,-0.94751 -0.30148,-1.16285 z"
     id="path979"
     sodipodi:nodetypes="ccccccccccccccccccccccccccccc" /></svg>
