<?xml version="1.0" encoding="UTF-8" standalone="no"?>
<!-- Created with SVGEdit -->

<svg
   version="1.1"
   viewBox="0 0 99.5796 81.4439"
   width="99.5796mm"
   height="81.4439mm"
   id="svg11"
   sodipodi:docname="people_red.svg"
   inkscape:version="1.2.1 (9c6d41e410, 2022-07-14)"
   xmlns:inkscape="http://www.inkscape.org/namespaces/inkscape"
   xmlns:sodipodi="http://sodipodi.sourceforge.net/DTD/sodipodi-0.dtd"
   xmlns="http://www.w3.org/2000/svg"
   xmlns:svg="http://www.w3.org/2000/svg">
  <defs
     id="defs15" />
  <sodipodi:namedview
     id="namedview13"
     pagecolor="#ffffff"
     bordercolor="#000000"
     borderopacity="0.25"
     inkscape:showpageshadow="2"
     inkscape:pageopacity="0.0"
     inkscape:pagecheckerboard="0"
     inkscape:deskcolor="#d1d1d1"
     inkscape:document-units="mm"
     showgrid="false"
     inkscape:zoom="2.8003427"
     inkscape:cx="180.51362"
     inkscape:cy="153.90973"
     inkscape:window-width="1920"
     inkscape:window-height="1137"
     inkscape:window-x="-8"
     inkscape:window-y="-8"
     inkscape:window-maximized="1"
     inkscape:current-layer="svg11" />
  <path
     style="fill:#ff0000;stroke-width:0.1px;fill-opacity:1"
     d="m 66.4047,80.4448 -0.8848,0.3385 -2.2776,-1.7665 -0.5851,-0.6429 -0.5944,-0.5703 0.2829,-2.0032 3.9108,-13.0482 0.2908,-1.8169 0.0875,-0.9103 0.6063,-0.597 -0.6271,0.126 -2.2777,0.8696 -1.5873,-0.0097 -1.2067,-0.6897 0.0688,-0.827 1.7641,-2.2952 0.7734,-2.598 0.3853,-4.1657 -0.0534,-2.4421 -0.0083,-3.4789 -0.7903,-3.0539 0.2198,-1.1054 0.1187,-0.7852 -0.3179,-0.8267 0.3236,-2.0318 -0.8314,-0.4089 -1.2886,0.8395 -0.3133,0.8832 -0.0025,3.9909 -0.6701,7.4707 -2.3044,11.9671 -0.6984,1.6523 -1.4781,1.2512 -2.3035,3.4574 -0.9593,4.9562 -0.2595,3.1941 0.1292,0.92 1.9828,1.4763 2.3656,1.4344 0.055,0.7495 -0.6778,0.5972 -3.5278,0.1094 -2.4858,-0.5104 -1.2481,-0.2538 -0.8032,0.1026 -0.7139,0.5758 -1.3553,-0.3253 -1.2947,-4.5545 3.1971,-10.6424 -0.819,0.004 -3.9716,9.1411 -0.9153,3.2005 -0.8226,0.7517 -0.642,1.1549 -1.139,1.1344 L 39.1888,80.0807 17.0105,80.5626 1.6007,80.3058 0.5573,79.9669 3.0414,76.5943 5.8928,71.4963 7.6393,67.6712 8.0471,66.8814 8.5906,66.1692 8.9016,64.8701 8.3267,64.3218 7.3234,64.5734 7.0699,64.0247 5.6848,63.4512 4.8288,63.0935 8.4663,61.3908 11.0648,59.3907 11.2657,58.6839 11.0543,57.1728 10.4606,56.145 10.3194,54.846 8.8835,53.5571 8.359,51.8936 l 0.0858,-2.3489 0.727,-2.2654 1.7673,-2.8381 4.109,-3.6406 4.3674,-2.2386 2.5084,-0.6356 3.362,-0.3552 -0.1714,-1.7392 -0.0637,-1.1343 -1.9628,-1.0616 -1.0715,-1.2037 -0.3096,-1.2643 0.2907,-1.7615 1.3001,-1.3668 1.5397,-0.7987 0.4106,-0.3026 -1.4198,-0.31 -1.6466,-0.1012 -1.4122,-0.4974 -1.1968,-1.3731 -0.6974,-1.7548 -0.0288,-1.8366 0.5996,-1.1972 1.4369,-0.9164 1.4575,-0.4281 1.8892,-3.8564 1.7408,-2.2548 0.8371,-0.4139 0.7665,0.2857 0.7849,1.0163 0.5873,1.8218 0.9243,0.6257 0.7169,1.502 1.1138,0.5733 0.8565,0.3446 -0.5509,1.8251 -0.5732,0.576 -0.6407,0.4908 1.2703,0.9511 0.1449,2.0544 -0.9008,0.9829 0.6753,0.5714 1.0436,0.3599 1.5896,0.4565 0.6098,0.8996 0.3469,1.977 1.165,0.7264 0.7082,-0.5709 2.4438,-3.8278 2.3232,-2.4772 0.779,-0.3266 -0.0592,-0.6649 -3.6018,0.6732 -1.7855,0.4675 -0.5861,-1.7942 -0.0719,-1.4586 0.758,-1.2237 -1.8671,-0.6115 1.1941,-2.9752 0.4399,-1.3877 5.0587,1.7372 1.5128,0.6632 0.1343,-0.9361 -0.832,-0.2521 -1.4966,-0.2251 -0.1411,-0.862 0.5041,-0.9157 -0.5304,-2.3231 -3.9505,-4.3276 1.1505,-1.4239 2.4769,-2.0091 4.025,-1.8892 2.2436,-0.5832 0.7067,0.4294 0.4002,1.8246 0.7836,4.4255 0.4312,0.9823 2.4698,-0.2638 0.3626,0.6926 -0.6022,1.2998 -0.5903,1.0623 0.5044,0.711 1.6005,0.4658 -0.1186,0.8221 -0.2338,0.9018 -0.2155,0.8482 -0.9969,0.7182 2.0357,1.3217 0.0267,1.0446 -0.8523,1.1475 1.9177,0.6861 1.8268,1.4443 0.87,0.4585 2.235,2.7736 0.7298,1.8921 0.7664,0.1338 3.845,-5.7102 1.0204,-0.0313 1.3214,0.1202 2.1245,-1.2826 -0.5202,-1.2871 -0.5259,-0.9628 -0.696,-0.9403 -1.8278,-1.1676 -0.1337,-2.5196 0.744,-1.1345 -0.3945,-2.5883 0.4121,-1.3112 2.3815,-1.9057 2.8187,-0.9858 2.3474,-0.1465 1.3705,0.4604 0.474,0.7963 0.0037,2.6229 0.1886,0.7557 1.752,0.2788 0.5964,0.8296 -0.3254,0.7563 -1.7786,1.3781 0.954,0.5172 1.0177,0.4442 -0.1023,0.8807 -0.3429,0.8923 -0.6026,0.7644 -0.8195,0.2948 1.6786,1.2188 -0.2647,0.8875 -0.9388,1.5248 2.0319,-0.1522 4.0962,-0.623 0.5158,0.5502 -1.9219,1.7788 0.0032,0.87 1.0748,0.6904 2.2736,-0.4201 0.8382,-0.1723 5.3986,2.3223 0.5327,-0.7937 0.7095,-0.4515 0.1875,-0.9295 -0.2343,-1.1104 0.8184,-1.7101 0.8404,-0.1476 0.9032,-0.2039 2.3307,-3.1371 0.8584,0.1169 -1.2634,2.6878 0.319,0.7864 0.8721,0.2781 0.4152,2.1261 -0.934,1.4788 -2.2799,6.7569 -1.6349,0.7145 -2.4405,3.9846 -1.3193,1.5336 -2.8769,1.1216 -0.339,4.2981 -1.1661,5.6105 -1.9954,5.766 -3.4154,7.2804 -0.6659,-0.5522 -1.7474,-0.6374 -2.0342,4.1944 -0.7039,0.8881 -1.032,7.4819 0.0857,2.4172 0.7551,1.6576 3.5796,3.4475 0.1003,0.9328 -0.8665,0.2945 -9.1058,0.0744 z m -27.465,-10.8042 1.4957,-2.3725 0.1389,-1.2649 0.4194,-0.78 0.4855,-0.7021 0.9475,-1.5295 -0.557,-0.6435 -1.065,-0.8125 0.7797,-1.6402 -0.956,0.6046 -2.1799,0.4194 -1.8223,-1.2039 -0.3516,-0.8113 2.8494,-2.562 2.103,-3.3446 1.5329,-3.6428 0.8309,-3.3066 0.5419,-0.8596 0.2889,-1.3757 0.3072,-1.1262 0.0799,-1.913 0.0562,-1.0809 -0.8579,-1.014 -0.3115,-2.3267 0.0915,-0.9447 -0.5989,-0.13 -0.9897,0.5094 -1.7133,2.7478 -1.2174,0.9739 -1.44,0.311 -1.3146,0.1391 -1.3433,1.7557 0.6875,3.2643 -0.1835,4.9421 -1.024,7.6554 -1.8111,9.4224 -0.6185,7.461 0.0956,3.4922 1.661,-1.0918 2.1072,-2.3856 0.4056,-0.8207 z"
     id="path2" />
</svg>
