<?xml version="1.0" encoding="UTF-8" standalone="no"?>
<!-- Created with Inkscape (http://www.inkscape.org/) -->

<svg
   width="135.99937mm"
   height="136.00226mm"
   viewBox="0 0 135.99937 136.00226"
   version="1.1"
   id="svg5"
   xml:space="preserve"
   inkscape:version="1.2.1 (9c6d41e410, 2022-07-14)"
   sodipodi:docname="table_bed.svg"
   xmlns:inkscape="http://www.inkscape.org/namespaces/inkscape"
   xmlns:sodipodi="http://sodipodi.sourceforge.net/DTD/sodipodi-0.dtd"
   xmlns="http://www.w3.org/2000/svg"
   xmlns:svg="http://www.w3.org/2000/svg"><sodipodi:namedview
     id="namedview7"
     pagecolor="#ffffff"
     bordercolor="#000000"
     borderopacity="0.25"
     inkscape:showpageshadow="2"
     inkscape:pageopacity="0.0"
     inkscape:pagecheckerboard="0"
     inkscape:deskcolor="#d1d1d1"
     inkscape:document-units="mm"
     showgrid="false"
     inkscape:zoom="0.79107744"
     inkscape:cx="257.24409"
     inkscape:cy="256.61205"
     inkscape:window-width="1920"
     inkscape:window-height="1017"
     inkscape:window-x="1912"
     inkscape:window-y="-3"
     inkscape:window-maximized="1"
     inkscape:current-layer="svg5" /><defs
     id="defs2" /><path
     style="fill:none;stroke:#000000;stroke-width:1.09026;stroke-opacity:1;stop-color:#000000"
     d="m 0.5475963,66.571072 1.647465,-13.49415 4.013829,-12.26669 6.5477607,-11.520886 8.84451,-10.251973 10.168695,-7.889272 12.254865,-6.1291474 12.37023,-3.504605 13.09552,-0.96678696 13.297,1.61131396 12.4911,4.149128 11.524059,6.4855334 10.07348,8.660801 8.01848,10.312404 5.9232,11.64173 3.50557,12.36682 1.12824,13.09191 -1.53118,13.57531 -4.02938,12.4071 -6.80967,12.245968 -8.38115,9.70817 -10.35552,8.05655 -11.926999,6.00215 -12.77316,3.62543 -13.21641,0.9668 -13.09552,-1.61132 -12.69258,-4.1894 -11.48376,-6.52582 -9.9123,-8.4594 -8.219958,-10.43323 -5.9232047,-11.722298 -3.586158,-12.93079 z"
     id="path910" /></svg>
